<svg xmlns="http://www.w3.org/2000/svg" viewBox="0 0 80 80">
  <defs>
    <radialGradient id="bg" cx="50%" cy="50%" r="50%">
      <stop offset="0%" stop-color="#1e0a4a"/>
      <stop offset="100%" stop-color="#05010f"/>
    </radialGradient>
    <linearGradient id="ring" x1="0%" y1="0%" x2="100%" y2="100%">
      <stop offset="0%" stop-color="#a78bfa"/>
      <stop offset="100%" stop-color="#4f46e5"/>
    </linearGradient>
    <linearGradient id="core" x1="0%" y1="0%" x2="100%" y2="100%">
      <stop offset="0%" stop-color="#ede9fe"/>
      <stop offset="100%" stop-color="#7c3aed"/>
    </linearGradient>
  </defs>
  <circle cx="40" cy="40" r="38" fill="url(#bg)"/>
  <polygon points="40,18 57,28 57,52 40,62 23,52 23,28" stroke="url(#ring)" stroke-width="2" fill="rgba(124,58,237,0.1)"/>
  <circle cx="40" cy="18" r="3" fill="#a78bfa"/>
  <circle cx="57" cy="28" r="3" fill="#a78bfa"/>
  <circle cx="57" cy="52" r="3" fill="#a78bfa"/>
  <circle cx="40" cy="62" r="3" fill="#a78bfa"/>
  <circle cx="23" cy="52" r="3" fill="#a78bfa"/>
  <circle cx="23" cy="28" r="3" fill="#a78bfa"/>
  <line x1="40" y1="18" x2="40" y2="40" stroke="rgba(167,139,250,0.3)" stroke-width="1"/>
  <line x1="57" y1="28" x2="40" y2="40" stroke="rgba(167,139,250,0.3)" stroke-width="1"/>
  <line x1="57" y1="52" x2="40" y2="40" stroke="rgba(167,139,250,0.3)" stroke-width="1"/>
  <line x1="40" y1="62" x2="40" y2="40" stroke="rgba(167,139,250,0.3)" stroke-width="1"/>
  <line x1="23" y1="52" x2="40" y2="40" stroke="rgba(167,139,250,0.3)" stroke-width="1"/>
  <line x1="23" y1="28" x2="40" y2="40" stroke="rgba(167,139,250,0.3)" stroke-width="1"/>
  <circle cx="40" cy="40" r="10" fill="#0d051f" stroke="url(#ring)" stroke-width="1.5"/>
  <circle cx="40" cy="40" r="6" fill="url(#core)"/>
  <circle cx="40" cy="40" r="2.5" fill="white"/>
</svg>
